<?xml version="1.0" encoding="utf-8"?>
<!-- Generator: Adobe Illustrator 22.1.0, SVG Export Plug-In . SVG Version: 6.00 Build 0)  -->
<svg version="1.1" id="Layer_1" xmlns="http://www.w3.org/2000/svg" xmlns:xlink="http://www.w3.org/1999/xlink" x="0px" y="0px"
	 viewBox="0 0 662.2 181.4" style="enable-background:new 0 0 662.2 181.4;" xml:space="preserve">
<style type="text/css">
	.st0{clip-path:url(#SVGID_2_);}
	.st1{fill:#7808FF;}
	.st2{fill:#71B406;}
	.st3{fill:#616161;}
	.st4{fill:#EA641D;}
	.st5{fill:#E8CA04;}
</style>
<title>Asset 5</title>
<g id="Layer_2_1_">
	<g id="Layer_1-2">
		<g>
			<defs>
				<circle id="SVGID_1_" cx="467.1" cy="81.8" r="29"/>
			</defs>
			<clipPath id="SVGID_2_">
				<use xlink:href="#SVGID_1_"  style="overflow:visible;"/>
			</clipPath>
			<g class="st0">
				<rect x="438.1" y="37.9" class="st1" width="57.9" height="23.1"/>
			</g>
		</g>
		<circle class="st1" cx="467.3" cy="81.8" r="29"/>
		<ellipse transform="matrix(0.1602 -0.9871 0.9871 0.1602 351.5608 576.8102)" class="st2" cx="514.8" cy="81.8" rx="29" ry="29"/>
		<path class="st3" d="M0.8,2.1h44.6c33.5,0,57.5,20.1,57.5,53.1s-24.1,53.2-57.4,53.2H0.8V2.1z M45.4,84.4
			c18.6,0,29.5-13.5,29.5-29.3C74.9,38.7,65,26,45.5,26H28.2v58.4H45.4z"/>
		<path class="st3" d="M115,2.1h77.9v23.1h-50.5v17.7h49.4v23.3h-49.4v19.1h50.5v23.1H115V2.1z"/>
		<path class="st3" d="M204.7,2.1h31.1l26.1,76.6l26.3-76.6h31.1l-40.1,106.3h-34.4L204.7,2.1z"/>
		<path class="st3" d="M316.9,55.3c0-32.8,24.9-55,56.7-55c26.5,0,40.1,14.5,47.2,28.5L397.2,40c-4.1-9.4-13.4-15.4-23.6-15.5
			c-16.6,0-28.8,13.4-28.8,30.8S357.1,86,373.6,86c10.2,0,19.5-6.1,23.6-15.4l23.6,11.2c-6.9,13.7-20.7,28.5-47.2,28.5
			C341.8,110.3,316.9,88,316.9,55.3z"/>
		<ellipse transform="matrix(0.1735 -0.9848 0.9848 0.1735 396.917 530.8964)" class="st4" cx="514.8" cy="29" rx="29" ry="29"/>
		<circle class="st5" cx="467.1" cy="29" r="29"/>
		<path class="st3" d="M590.4,44.1v64.2H563V2.1h28.2l43,61.2V2.1h27.6v106.3h-26.4L590.4,44.1z"/>
		<path class="st3" d="M276.6,143.9c0,2.2-1.7,4-3.9,4.1c0,0-0.1,0-0.1,0c-1.8,0-3.1-1.3-3.8-3.2c-0.2-1.1-0.9-2-1.8-2.6
			c-1.1-0.8-2.4-1.2-3.8-1.1c-3.2,0-6.1,2.1-6.1,5.5s2.8,4.8,6.4,6.1c2.7,1,6.5,2.1,9.1,4.1c2.8,2.1,4.8,5.3,4.8,10.2
			c0,9.3-7,13.8-14.8,13.8c-6.1,0-11.1-2.8-13.3-7.5c-0.6-1.1-0.9-2.4-1-3.6c0-2.1,1.7-3.9,3.9-3.9c0,0,0,0,0,0
			c1.7,0,3.1,1.1,3.7,2.6c0.8,1.9,1.1,2.4,2,3.1c1.4,1.2,3.2,1.8,5,1.7c3.7,0,6.9-2.1,6.9-6c0-3.4-2.6-4.8-6-6
			c-3.6-1.3-6.7-2.4-9.4-4.4c-3.2-2.3-5-6-4.9-9.9c0-7.9,6-13.1,13.9-13.1c4.6,0,8.8,1.8,11.4,5.3
			C275.9,140.5,276.5,142.2,276.6,143.9z"/>
		<path class="st3" d="M326.6,164.4c0,9.8-5.8,16.3-15.8,16.3c-10.9,0-15.7-6.9-15.7-18V138c0.1-2.2,1.9-3.8,4.1-3.7
			c2,0.1,3.6,1.7,3.7,3.7v26.3c0,5.6,3.1,8.9,7.9,8.9s8-3.3,8-8.9V138c0.1-2.1,1.8-3.8,3.9-3.8c2.1,0,3.8,1.7,3.9,3.8L326.6,164.4z"
			/>
		<path class="st3" d="M388.5,176.7c0,2-1.6,3.6-3.6,3.6c0,0,0,0,0,0c-2,0-3.6-1.6-3.7-3.5l-0.2-26.2L370.9,178
			c-0.6,1.4-2,2.4-3.6,2.3c-1.6,0-3-0.9-3.6-2.3l-9.9-27.4l-0.3,26.2c-0.1,2-1.9,3.6-3.9,3.4c-1.9-0.1-3.4-1.6-3.5-3.5l0.8-38.6
			c0.1-2.6,2.1-3.8,4.5-3.8c1.8-0.1,3.5,1,4.3,2.6l11.8,30.6l11.9-30.6c0.6-1.7,2.2-2.7,4-2.6c2.3,0,4.4,1.3,4.5,3.8L388.5,176.7z"
			/>
		<path class="st3" d="M451,176.7c0,2-1.6,3.6-3.6,3.6c0,0,0,0,0,0c-2,0-3.6-1.6-3.7-3.5l-0.2-26.2l-10,27.4c-0.6,1.4-2,2.4-3.6,2.3
			c-1.6,0-3-0.9-3.6-2.3l-9.9-27.4l-0.3,26.2c-0.1,2-1.9,3.6-3.9,3.4c-1.9-0.1-3.4-1.6-3.5-3.5l0.8-38.6c0.1-2.6,2.1-3.8,4.5-3.8
			c1.8-0.1,3.5,1,4.3,2.6l11.8,30.6l11.9-30.6c0.6-1.7,2.2-2.7,4-2.6c2.3,0,4.4,1.3,4.5,3.8L451,176.7z"/>
		<path class="st3" d="M478.5,176.5c-0.1,2.1-1.8,3.7-3.8,3.8c-2.1,0-3.9-1.6-4-3.8V138c0.1-2.1,1.9-3.8,4-3.8
			c2.1,0,3.8,1.7,3.8,3.8V176.5z"/>
		<path class="st3" d="M518.6,142.1v34.4c-0.1,2.2-1.9,3.8-4.1,3.7c-2-0.1-3.6-1.7-3.7-3.7v-34.4h-8.9c-2.1,0-3.8-1.7-3.8-3.8
			s1.7-3.8,3.8-3.8h25.7c2.1,0,3.8,1.7,3.8,3.8s-1.7,3.8-3.8,3.8H518.6z"/>
		<path class="st3" d="M12.6,135.4c12.5,0,20.6,7.3,20.6,22.7s-7.6,22.6-20.6,22.6H3.8c-2.1,0-3.8-1.7-3.8-3.8v-37.7
			c0.1-2.1,1.7-3.8,3.8-3.8H12.6z M7.8,143.1v30h2.1c11.1,0,15.6-2.8,15.6-14.9c0-12-4.5-15.1-14.8-15.1L7.8,143.1z"/>
		<path class="st3" d="M79.9,175.6c0.2,0.5,0.2,1,0.2,1.6c0.1,2-1.5,3.7-3.6,3.8c-0.1,0-0.1,0-0.2,0c-1.7,0-3.2-1-3.8-2.6l-2.4-7.2
			H55.6l-2.4,7.3c-0.6,1.9-2.7,3-4.7,2.3c-1.5-0.5-2.5-1.9-2.5-3.5c0-0.6,0.1-1.1,0.3-1.6l13.1-38.2c0.8-2,3.2-3,5.2-2.2
			c1,0.4,1.8,1.2,2.2,2.2L79.9,175.6z M57.7,164.4h10.6l-5.3-15.9L57.7,164.4z"/>
		<path class="st3" d="M110.4,178.4c-0.6,1.5-2.1,2.5-3.7,2.5c-1.6,0-3.1-1-3.7-2.5l-13.1-38c-0.2-0.5-0.2-1-0.2-1.6
			c0.1-2.1,1.8-3.7,3.9-3.8c1.6,0,3.1,1,3.6,2.6l9.8,29.7l9.8-29.8c0.5-1.4,1.9-2.4,3.4-2.4c2,0,3.6,1.6,3.6,3.6
			c0,0.5-0.1,1.1-0.3,1.6L110.4,178.4z"/>
		<path class="st3" d="M167.1,175.6c0.2,0.5,0.2,1,0.2,1.6c0,2-1.6,3.7-3.6,3.8c0,0-0.1,0-0.1,0c-1.7,0-3.2-1-3.8-2.6l-2.4-7.2
			h-14.7l-2.4,7.3c-0.7,1.9-2.8,2.9-4.8,2.2c-1.4-0.5-2.4-1.8-2.4-3.3c0-0.6,0.1-1.1,0.3-1.6l13.1-38.2c0.9-2,3.2-3,5.2-2.1
			c1,0.4,1.7,1.2,2.1,2.1L167.1,175.6z M144.9,164.4h10.6l-5.3-15.9L144.9,164.4z"/>
		<path class="st3" d="M218.2,158.1c0,14.6-7.6,23.4-18.9,23.4s-19-8.8-19-23.4s7.6-23.4,19-23.4
			C210.5,134.7,218.2,143.5,218.2,158.1z M188.1,158.1c0,9.4,3.9,15.8,11.2,15.8s11.1-6.4,11.1-15.8s-3.9-15.8-11.1-15.8
			S188.1,148.7,188.1,158.1z"/>
		<path class="st3" d="M646.8,159.7c-0.6-0.3-1.2-0.5-1.8-0.7c-0.5-0.2-1.1-0.3-1.7-0.4c-0.6,0.1-1.1,0.2-1.7,0.4
			c-0.6,0.2-1.2,0.4-1.8,0.7c-0.6,0.3-1.1,0.7-1.5,1.2c-0.4,0.5-0.6,1-0.6,1.6c0,1.1,0.6,2.1,1.6,2.6c2.5,1.3,5.5,1.3,7.9,0
			c1-0.5,1.6-1.5,1.6-2.6c0-0.6-0.2-1.2-0.6-1.6C647.9,160.4,647.4,159.9,646.8,159.7z"/>
		<path class="st3" d="M600.8,147.7c-0.9-0.9-2.2-1.4-3.4-1.3c-2-0.1-3.8,1.1-4.6,2.9c-0.5,1-0.8,2-1,3.1c-0.2,1.3-0.3,2.6-0.3,3.9
			c0,1.7,0.2,3.4,0.6,5.1c0.3,1.3,1,2.5,1.9,3.5c1.9,1.8,4.9,1.8,6.8,0c0.9-1,1.6-2.2,1.9-3.5c0.7-3.3,0.7-6.8,0-10.1
			C602.3,149.8,601.7,148.6,600.8,147.7z"/>
		<path class="st3" d="M640.1,152.1c0.5,0.3,1.1,0.5,1.6,0.6c0.5,0.2,1.1,0.3,1.6,0.4c0.5-0.1,1.1-0.2,1.6-0.4
			c0.6-0.2,1.1-0.4,1.6-0.6c0.5-0.2,1-0.6,1.3-1.1c0.3-0.4,0.5-0.9,0.5-1.4c0-1-0.5-1.9-1.4-2.4c-1.1-0.6-2.4-0.9-3.7-0.9
			c-1.3-0.1-2.6,0.3-3.7,0.9c-0.9,0.5-1.4,1.4-1.4,2.4c0,0.5,0.2,1,0.5,1.4C639.1,151.5,639.6,151.9,640.1,152.1z"/>
		<path class="st3" d="M548.1,133.3v47h114.2v-47H548.1z M581.1,171.1h-22.5v-5c2.2-1.7,4.1-3,5.5-4.1c1.4-1.1,2.8-2.1,4.1-3.2
			c1.3-1.1,2.3-2,3-2.7c0.7-0.7,1.3-1.4,1.9-2.1c0.5-0.6,0.9-1.3,1.1-2c0.2-0.6,0.3-1.2,0.3-1.8c0.1-1.1-0.5-2.2-1.4-2.9
			c-1-0.7-2.2-1-3.4-1c-3.1-0.1-6,1.2-8,3.5l-3.6-4.2c1.4-1.6,3.2-2.9,5.2-3.6c2-0.8,4.2-1.2,6.4-1.2c2,0,4,0.3,5.8,1.1
			c1.7,0.7,3.1,1.8,4.1,3.3c1,1.5,1.6,3.3,1.5,5.1c-0.1,2.7-1.1,5.2-2.9,7.2c-2.7,3-5.7,5.7-9.1,8.1h12.2L581.1,171.1z M608.9,161.9
			c-0.5,1.8-1.2,3.4-2.2,4.9c-1,1.5-2.3,2.7-3.9,3.6c-3.5,1.8-7.6,1.8-11,0c-1.6-0.8-2.9-2.1-3.9-3.6c-1-1.5-1.7-3.2-2.2-4.9
			c-1-3.7-1-7.7,0-11.4c0.5-1.7,1.2-3.4,2.2-4.9c1-1.5,2.3-2.7,3.9-3.5c3.5-1.7,7.6-1.7,11,0c1.6,0.8,2.9,2.1,3.9,3.5
			c1,1.5,1.7,3.2,2.2,4.9C609.9,154.2,609.9,158.1,608.9,161.9z M626.8,171.1h-6.4v-21.7l-5,5.1l-3.6-3.8l9.4-9.5h5.6V171.1z
			 M653.6,168c-1.2,1.3-2.7,2.3-4.4,2.8c-1.9,0.6-3.9,0.9-5.9,0.9c-1.5,0-3.1-0.2-4.6-0.5c-1.3-0.3-2.6-0.8-3.8-1.5
			c-1.1-0.6-2-1.5-2.7-2.6c-0.7-1.1-1-2.4-1-3.6c0-1.7,0.6-3.4,1.8-4.7c1.3-1.4,2.8-2.5,4.6-3.1c-4-1.4-6-3.7-6-7.1
			c0-1.3,0.3-2.5,1-3.6c0.7-1,1.6-1.9,2.7-2.5c1.2-0.6,2.4-1.1,3.7-1.4c1.4-0.3,2.8-0.5,4.2-0.4c1.1,0,2.2,0.1,3.3,0.3
			c1.1,0.2,2.1,0.5,3.1,0.9c0.9,0.4,1.8,0.9,2.6,1.5c0.8,0.6,1.4,1.4,1.8,2.2c0.5,0.9,0.7,2,0.7,3c0,3.3-2,5.7-5.9,7.1
			c1.8,0.6,3.3,1.7,4.6,3.1c1.2,1.3,1.8,3,1.8,4.7C655.3,165.1,654.7,166.7,653.6,168z"/>
	</g>
</g>
</svg>
